#!OML:ASF H:\Terrain\Patient Classification 1\Terrain2\Thursday\justin.ASF
:FULLY-SPECIFIED
:DEGREES
3053
root -11.8474 17.449 21.1696 1080.63 -178.885 -709.736
lowerback 8.8465 0.316371 7.56914
upperback 3.66247 0.368084 5.31812
thorax -1.08686 -0.118917 1.2471
lowerneck -12.4749 0.00825881 -10.1201
upperneck 37.9174 -3.97838 5.0703
head 15.7483 -3.96253 2.90859
rclavicle -1.3418e-014 -7.4743e-014
rhumerus -31.7554 -14.1035 -77.9815
rradius 24.2489
rwrist -8.10062
rhand -20.6222 13.7209
rfingers 7.12502
rthumb 5.73909 -16.1814
lclavicle -1.3418e-014 -7.4743e-014
lhumerus -33.3547 3.20869 85.7483
lradius 38.7805
lwrist 1.56851
lhand -17.2392 20.6125
lfingers 7.12502
lthumb 9.00455 -309.6
rfemur -1.62382 -6.60501 33.8005
rtibia 23.2721
rfoot -22.1254 4.37175
rtoes 13.0639
lfemur -23.0946 3.43276 -6.42373
ltibia 60.6577
lfoot -13.8655 -9.06884
ltoes -10.9049
3054
root -11.8467 17.4419 21.1248 1080.64 -179.263 -709.864
lowerback 8.91682 0.580703 7.83847
upperback 3.75343 0.761965 4.98013
thorax -1.00789 0.0961154 0.707907
lowerneck -12.5991 -0.140576 -9.58345
upperneck 37.7994 -4.26082 5.05267
head 15.7361 -3.97429 2.76091
rclavicle -3.57812e-015 -7.15625e-015
rhumerus -31.6667 -14.925 -78.1269
rradius 24.0991
rwrist -7.77665
rhand -20.6116 13.6312
rfingers 7.12502
rthumb 5.74937 -16.2708
lclavicle -3.57812e-015 -7.15625e-015
lhumerus -33.2264 2.25101 85.7835
lradius 38.6903
lwrist 2.06844
lhand -17.3081 19.6487
lfingers 7.12502
lthumb 8.93805 -310.561
rfemur -1.3439 -6.30502 33.6411
rtibia 23.1441
rfoot -22.1137 4.46318
rtoes 13.0951
lfemur -23.6436 3.7539 -6.60271
ltibia 60.7714
lfoot -13.8871 -9.33382
ltoes -11.3563
3055
root -11.8428 17.4243 21.0829 1080.65 -179.606 -709.965
lowerback 9.13375 0.647416 7.70209
upperback 3.63335 0.890481 4.93778
thorax -1.25169 0.157358 0.726062
lowerneck -12.3435 -0.0644203 -9.51709
upperneck 37.7727 -4.22578 5.04833
head 15.6538 -3.96674 2.75218
rclavicle 3.67752e-015 1.47101e-014
rhumerus -31.8361 -14.8875 -78.0581
rradius 23.9617
rwrist -7.40453
rhand -20.589 13.8861
rfingers 7.12502
rthumb 5.77119 -16.0154
lclavicle 3.67752e-015 1.47101e-014
lhumerus -33.668 2.03846 86.0127
lradius 38.618
lwrist 3.49427
lhand -17.536 18.0749
lfingers 7.12502
lthumb 8.71814 -312.125
rfemur -1.03263 -5.92715 33.5449
rtibia 22.9109
rfoot -22.1218 4.43855
rtoes 13.7692
lfemur -24.2445 4.20542 -6.77825
ltibia 60.7327
lfoot -14.0323 -9.15856
ltoes -14.5497
3056
root -11.841 17.4355 21.0399 1080.78 -179.922 -709.973
lowerback 9.32013 0.641019 7.66286
upperback 3.52337 0.914859 4.94869
thorax -1.4702 0.163513 0.756136
lowerneck -12.3809 0.0310041 -9.70398
upperneck 37.8627 -4.11515 5.19027
head 15.7032 -3.94299 2.86405
rclavicle -8.74653e-015 -4.85035e-014
rhumerus -31.8477 -14.4148 -78.1447
rradius 23.976
rwrist -7.18915
rhand -20.6335 13.8813
rfingers 7.12502
rthumb 5.72816 -16.0212
lclavicle -8.74653e-015 -4.85035e-014
lhumerus -33.8204 2.63621 85.9057
lradius 38.1627
lwrist 3.2813
lhand -17.9713 18.6049
lfingers 7.12502
lthumb 8.29804 -311.578
rfemur -0.80234 -5.79397 33.5103
rtibia 22.5831
rfoot -21.9938 4.63951
rtoes 14.2519
lfemur -25.0902 4.60793 -6.83211
ltibia 60.5635
lfoot -14.2069 -9.11111
ltoes -14.6255
3057
root -11.8429 17.4599 20.9888 1080.9 -180.168 -709.801
lowerback 9.24952 -0.234505 7.8359
upperback 3.73359 1.21246 4.90479
thorax -1.27541 0.948331 0.57018
lowerneck -12.7801 -0.0551761 -9.82627
upperneck 37.8713 -4.13264 5.26582
head 15.8128 -3.93201 2.91761
rclavicle 3.97569e-016 -1.43125e-014
rhumerus -31.4387 -14.1043 -78.3228
rradius 23.9368
rwrist -7.26179
rhand -20.7426 13.5583
rfingers 7.12502
rthumb 5.62282 -16.3471
lclavicle 3.97569e-016 -1.43125e-014
lhumerus -33.4051 3.24728 85.7166
lradius 37.6123
lwrist 1.96779
lhand -18.0044 20.5975
lfingers 7.12502
lthumb 8.26608 -309.584
rfemur -0.439372 -5.78004 33.645
rtibia 22.0989
rfoot -21.7391 4.9096
rtoes 14.1266
lfemur -25.9299 4.77708 -6.64641
ltibia 60.2836
lfoot -14.1206 -9.36822
ltoes -11.902
3058
root -11.8469 17.4746 20.932 1080.95 -180.41 -709.962
lowerback 9.12322 -0.10852 7.81749
upperback 3.84726 1.35183 4.84359
thorax -1.0792 1.02503 0.506422
lowerneck -12.9304 -0.177456 -9.96587
upperneck 37.8267 -4.23934 5.31285
head 15.8453 -3.97326 2.94624
rclavicle -1.70955e-014 -3.53837e-014
rhumerus -31.196 -14.003 -78.3164
rradius 23.8905
rwrist -7.22749
rhand -20.7425 13.0712
rfingers 7.12502
rthumb 5.62293 -16.8342
lclavicle -1.70955e-014 -3.53837e-014
lhumerus -33.3697 3.37169 85.7634
lradius 37.4259
lwrist 1.57149
lhand -18.0869 21.4719
lfingers 7.12502
lthumb 8.18644 -308.707
rfemur 0.104454 -5.69242 33.4071
rtibia 21.4209
rfoot -21.4833 5.21318
rtoes 14.6691
lfemur -26.5995 4.87636 -6.90853
ltibia 59.8628
lfoot -14.2557 -9.1062
ltoes -12.4737
3059
root -11.8503 17.4859 20.8801 1081.06 -180.582 -710.252
lowerback 9.06378 -0.0190851 7.66041
upperback 3.8369 1.42504 4.71992
thorax -1.0534 1.05141 0.458242
lowerneck -12.8902 -0.18152 -10.0144
upperneck 37.7499 -4.23898 5.38689
head 15.7995 -3.96309 2.98809
rclavicle 5.96354e-015 -2.94201e-014
rhumerus -31.1647 -14.1209 -78.2809
rradius 23.9413
rwrist -6.88263
rhand -20.8232 12.7224
rfingers 7.12502
rthumb 5.54501 -17.1851
lclavicle 5.96354e-015 -2.94201e-014
lhumerus -33.6557 3.43118 85.6789
lradius 37.2906
lwrist 1.22969
lhand -18.145 21.3419
lfingers 7.12502
lthumb 8.13041 -308.835
rfemur 0.552827 -5.48259 33.0713
rtibia 20.7034
rfoot -21.3093 5.36905
rtoes 15.5644
lfemur -27.3412 4.99089 -7.35114
ltibia 59.3188
lfoot -14.683 -8.67217
ltoes -14.0152
3060
root -11.8523 17.488 20.8316 1081.19 -180.729 -710.168
lowerback 9.10562 -0.00249747 7.90767
upperback 3.80406 1.46663 4.63526
thorax -1.09969 1.06972 0.228504
lowerneck -12.9766 -0.153978 -9.80508
upperneck 37.7638 -4.1782 5.2398
head 15.8116 -3.92194 2.897
rclavicle 3.8763e-015 3.97569e-015
rhumerus -31.1363 -14.1502 -78.4222
rradius 24.1035
rwrist -6.7312
rhand -20.9806 12.7212
rfingers 7.12502
rthumb 5.39304 -17.1902
lclavicle 3.8763e-015 3.97569e-015
lhumerus -33.9624 3.26633 85.6445
lradius 37.227
lwrist 1.68634
lhand -18.2216 20.4367
lfingers 7.12502
lthumb 8.05649 -309.737
rfemur 0.900248 -5.21764 33.1887
rtibia 20.1179
rfoot -21.1842 5.28623
rtoes 15.8442
lfemur -28.0694 5.08065 -7.28726
ltibia 58.6845
lfoot -14.8067 -8.54385
ltoes -12.9869
3061
root -11.8517 17.4884 20.7824 1081.34 -180.895 -710.038
lowerback 9.20776 0.0332694 8.13647
upperback 3.67108 1.54104 4.57247
thorax -1.28246 1.09461 0.0257572
lowerneck -12.9879 -0.14819 -9.67454
upperneck 37.9222 -4.26939 5.2148
head 15.9004 -3.9651 2.84512
rclavicle -5.46658e-015 -6.0033e-014
rhumerus -31.2484 -13.932 -78.601
rradius 24.2983
rwrist -6.89783
rhand -20.915 12.6623
rfingers 7.12502
rthumb 5.45638 -17.2475
lclavicle -5.46658e-015 -6.0033e-014
lhumerus -34.3432 3.0918 85.6545
lradius 37.173
lwrist 2.74333
lhand -16.9707 17.5464
lfingers 7.12502
lthumb 9.26358 -312.677
rfemur 1.15638 -4.87892 33.3802
rtibia 19.6658
rfoot -20.9019 5.15072
rtoes 15.8078
lfemur -28.8486 5.14748 -7.18082
ltibia 57.9266
lfoot -14.7004 -8.24992
ltoes -12.8081
3062
root -11.8541 17.4959 20.7293 1081.52 -180.98 -710.214
lowerback 9.18874 0.0800976 8.09572
upperback 3.60707 1.57455 4.43829
thorax -1.33294 1.09833 -0.0952159
lowerneck -13.0559 -0.170534 -9.76431
upperneck 37.9654 -4.41502 5.53485
head 15.9654 -4.00077 2.97622
rclavicle -1.02374e-014 -6.20208e-014
rhumerus -31.1845 -13.9489 -78.6854
rradius 24.2965
rwrist -6.82871
rhand -20.8435 12.7079
rfingers 7.12502
rthumb 5.52547 -17.2001
lclavicle -1.02374e-014 -6.20208e-014
lhumerus -34.4284 3.2892 85.4468
lradius 36.8725
lwrist 2.51602
lhand -17.5829 19.7635
lfingers 7.12502
lthumb 8.67283 -310.435
rfemur 1.37939 -4.58768 33.2109
rtibia 19.2695
rfoot -20.7416 5.10861
rtoes 15.5633
lfemur -29.6061 5.02294 -7.46999
ltibia 57.0234
lfoot -14.7321 -7.83368
ltoes -13.0598
3063
root -11.8611 17.4933 20.6709 1081.5 -181.024 -710.444
lowerback 9.17712 0.0735996 8.09226
upperback 3.76933 1.54932 4.3046
thorax -1.15443 1.09577 -0.226855
lowerneck -13.2758 -0.2313 -9.86065
upperneck 37.7787 -4.40893 5.70867
head 15.9311 -3.95144 3.0734
rclavicle -2.98177e-015 -1.31198e-014
rhumerus -30.8928 -13.9655 -78.7656
rradius 24.3334
rwrist -6.80811
rhand -20.8207 13.0405
rfingers 7.12502
rthumb 5.54743 -16.8669
lclavicle -2.98177e-015 -1.31198e-014
lhumerus -34.2671 3.48258 85.2724
lradius 36.4265
lwrist 1.93529
lhand -16.0911 18.4857
lfingers 7.12502
lthumb 10.1123 -311.777
rfemur 1.82961 -4.55838 32.9046
rtibia 18.9173
rfoot -20.8797 5.25147
rtoes 15.3996
lfemur -29.9555 4.81619 -7.81061
ltibia 55.9784
lfoot -14.9881 -7.37181
ltoes -13.8859
3064
root -11.868 17.4866 20.6092 1081.39 -181.115 -710.589
lowerback 9.25644 0.0747623 8.15958
upperback 3.86989 1.5589 4.20652
thorax -1.08765 1.10708 -0.366693
lowerneck -13.1836 -0.236728 -9.70868
upperneck 37.5276 -4.26553 5.43319
head 15.7547 -3.87758 2.95182
rclavicle 5.06901e-015 4.8901e-014
rhumerus -30.8464 -13.5484 -78.9008
rradius 24.674
rwrist -7.36666
rhand -20.8412 13.119
rfingers 7.12502
rthumb 5.52769 -16.7889
lclavicle 5.06901e-015 4.8901e-014
lhumerus -34.2756 3.60072 85.1719
lradius 35.7967
lwrist 1.91958
lhand -15.6912 16.3393
lfingers 7.12502
lthumb 10.498 -313.943
rfemur 2.37259 -4.61581 32.6628
rtibia 18.5681
rfoot -20.8851 5.48537
rtoes 15.6055
lfemur -30.1587 4.68114 -8.04671
ltibia 54.8349
lfoot -15.2096 -6.72294
ltoes -17.1641
